# xmcd
#
# Track frame offsets: 
#        150
#        16989
#        31713
#        62816
#        81243
#        100294
#        117596
#        135284
#        149969
#        165126
#        183375
#        192558
#        205057
#        226740
#        245565
#        265356
#        279387
#        293998
#
# Disc length: 4296 seconds
#
# Revision: 1
# Processed by: cddbd v1.4PL0 Copyright (c) Steve Scherf et al.
# Submitted via: ExactAudioCopy v0.95a4
#
DISCID=0610c612
DTITLE=Billy Boy Arnold - Catfish
DYEAR=1999
DGENRE=Blues
TTITLE0=Catfish
TTITLE1=Tomorrow Night
TTITLE2=Dirty Mether Fuyer
TTITLE3=Annie Lee
TTITLE4=1-2-99
TTITLE5=Just Got To Know
TTITLE6=She Fooled Me
TTITLE7=Don't Stay Out All Night
TTITLE8=Christmas Time
TTITLE9=Ooh Wee
TTITLE10=Eldorado Cadillac
TTITLE11=Riding the El
TTITLE12=Sinner's Prayer
TTITLE13=It's Great To Be Rich
TTITLE14=Mary Bernice
TTITLE15=I Wish You Would
TTITLE16=Just A Dream
TTITLE17=Blue And Lonesome
EXTD=
EXTT0=
EXTT1=
EXTT2=
EXTT3=
EXTT4=
EXTT5=
EXTT6=
EXTT7=
EXTT8=
EXTT9=
EXTT10=
EXTT11=
EXTT12=
EXTT13=
EXTT14=
EXTT15=
EXTT16=
EXTT17=
PLAYORDER=
